#Comment line ignore any data following # character 
#Hierarchical Translation and Rotation (.htr) file 
[Header]	
#Header keywords are followed by a single value 
FileType HTR		#Single word string
DataType HTRS		#Translation followed by rotation and scale data
FileVersion 1		#integer
NumSegments 84		#integer
NumFrames 2		#integer
DataFrameRate 30		#integer, data frame rate in this file
EulerRotationOrder ZYX
CalibrationUnits mm
RotationUnits Degrees
GlobalAxisofGravity Y
BoneLengthAxis Y
ScaleFactor 1.00
[SegmentNames&Hierarchy]
#CHILD	PARENT
MASTER GLOBAL
root MASTER
chest root
L_mid_tent01 root
R_mid_tent01 root
spine01 root
Bip01_Neck chest
L_humerus chest
R_humerus chest
weapon_bone chest
Bip01_Head Bip01_Neck
eye_left_bone Bip01_Head
eye_right_bone Bip01_Head
L_forearm L_humerus
L_front_hand L_forearm
L_weapon_bone L_forearm
L_front_hand01_01 L_front_hand
L_front_hand02_01 L_front_hand
L_front_hand03_01 L_front_hand
L_front_hand01_02 L_front_hand01_01
L_front_hand02_02 L_front_hand02_01
L_front_hand03_02 L_front_hand03_01
R_forearm R_humerus
R_front_hand R_forearm
R_weapon_bone R_forearm
R_front_hand01_01 R_front_hand
R_front_hand02_01 R_front_hand
R_front_hand03_01 R_front_hand
R_front_hand01_02 R_front_hand01_01
R_front_hand02_02 R_front_hand02_01
R_front_hand03_02 R_front_hand03_01
null_rope01_connect L_mid_tent01
Rope1_Seg01 null_rope01_connect
Rope1_Seg02 Rope1_Seg01
Rope1_Seg03 Rope1_Seg02
Rope1_Seg04 Rope1_Seg03
Rope1_Seg05 Rope1_Seg04
Rope1_Seg06 Rope1_Seg05
Rope1_Seg07 Rope1_Seg06
Rope1_Seg09 Rope1_Seg07
L_mid_hand01 Rope1_Seg09
L_mid_hand02 Rope1_Seg09
L_mid_hand03 Rope1_Seg09
null_rope02_connect R_mid_tent01
Rope2_Seg01 null_rope02_connect
Rope2_Seg02 Rope2_Seg01
Rope2_Seg03 Rope2_Seg02
Rope2_Seg04 Rope2_Seg03
Rope2_Seg05 Rope2_Seg04
Rope2_Seg06 Rope2_Seg05
Rope2_Seg07 Rope2_Seg06
Rope2_Seg09 Rope2_Seg07
R_mid_hand01 Rope2_Seg09
R_mid_hand02 Rope2_Seg09
R_mid_hand03 Rope2_Seg09
spine02 spine01
spine03 spine02
pelvis spine03
null_rope03_connect pelvis
null_rope04_connect pelvis
Rope3_Seg01 null_rope03_connect
Rope3_Seg02 Rope3_Seg01
Rope3_Seg03 Rope3_Seg02
Rope3_Seg04 Rope3_Seg03
Rope3_Seg05 Rope3_Seg04
Rope3_Seg06 Rope3_Seg05
Rope3_Seg07 Rope3_Seg06
Rope3_Seg08 Rope3_Seg07
Rope3_Seg09 Rope3_Seg08
R_rear_hand01 Rope3_Seg09
R_rear_hand02 Rope3_Seg09
R_rear_hand03 Rope3_Seg09
Rope4_Seg01 null_rope04_connect
Rope4_Seg02 Rope4_Seg01
Rope4_Seg03 Rope4_Seg02
Rope4_Seg04 Rope4_Seg03
Rope4_Seg05 Rope4_Seg04
Rope4_Seg06 Rope4_Seg05
Rope4_Seg07 Rope4_Seg06
Rope4_Seg08 Rope4_Seg07
Rope4_Seg09 Rope4_Seg08
L_rear_hand01 Rope4_Seg09
L_rear_hand02 Rope4_Seg09
L_rear_hand03 Rope4_Seg09
[BasePosition]
#SegmentName Tx, Ty, Tz, Rx, Ry, Rz, BoneLength
MASTER 0.000000 0.000000 0.000000 -90.000000 0.000000 0.000000 10.000000 
root 0.000000 0.000000 0.000000 0.000000 0.000000 0.000000 10.000000 
chest 0.000000 0.000000 0.000000 0.000000 0.000000 0.000000 10.000000 
L_mid_tent01 0.000000 0.000000 0.000000 0.000000 0.000000 0.000000 10.000000 
R_mid_tent01 0.000000 0.000000 0.000000 0.000000 0.000000 0.000000 10.000000 
spine01 0.000000 0.000000 0.000000 0.000000 0.000000 0.000000 10.000000 
Bip01_Neck 0.000000 0.000000 0.000000 0.000000 0.000000 0.000000 10.000000 
L_humerus 0.000000 0.000000 0.000000 0.000000 0.000000 0.000000 10.000000 
R_humerus 0.000000 0.000000 0.000000 0.000000 0.000000 0.000000 10.000000 
weapon_bone 0.000000 0.000000 0.000000 0.000000 0.000000 0.000000 10.000000 
Bip01_Head 0.000000 0.000000 0.000000 0.000000 0.000000 0.000000 10.000000 
eye_left_bone 0.000000 0.000000 0.000000 0.000000 0.000000 0.000000 10.000000 
eye_right_bone 0.000000 0.000000 0.000000 0.000000 0.000000 0.000000 10.000000 
L_forearm 0.000000 0.000000 0.000000 0.000000 0.000000 0.000000 10.000000 
L_front_hand 0.000000 0.000000 0.000000 0.000000 0.000000 0.000000 10.000000 
L_weapon_bone 0.000000 0.000000 0.000000 0.000000 0.000000 0.000000 10.000000 
L_front_hand01_01 0.000000 0.000000 0.000000 0.000000 0.000000 0.000000 10.000000 
L_front_hand02_01 0.000000 0.000000 0.000000 0.000000 0.000000 0.000000 10.000000 
L_front_hand03_01 0.000000 0.000000 0.000000 0.000000 0.000000 0.000000 10.000000 
L_front_hand01_02 0.000000 0.000000 0.000000 0.000000 0.000000 0.000000 10.000000 
L_front_hand02_02 0.000000 0.000000 0.000000 0.000000 0.000000 0.000000 10.000000 
L_front_hand03_02 0.000000 0.000000 0.000000 0.000000 0.000000 0.000000 10.000000 
R_forearm 0.000000 0.000000 0.000000 0.000000 0.000000 0.000000 10.000000 
R_front_hand 0.000000 0.000000 0.000000 0.000000 0.000000 0.000000 10.000000 
R_weapon_bone 0.000000 0.000000 0.000000 0.000000 0.000000 0.000000 10.000000 
R_front_hand01_01 0.000000 0.000000 0.000000 0.000000 0.000000 0.000000 10.000000 
R_front_hand02_01 0.000000 0.000000 0.000000 0.000000 0.000000 0.000000 10.000000 
R_front_hand03_01 0.000000 0.000000 0.000000 0.000000 0.000000 0.000000 10.000000 
R_front_hand01_02 0.000000 0.000000 0.000000 0.000000 0.000000 0.000000 10.000000 
R_front_hand02_02 0.000000 0.000000 0.000000 0.000000 0.000000 0.000000 10.000000 
R_front_hand03_02 0.000000 0.000000 0.000000 0.000000 0.000000 0.000000 10.000000 
null_rope01_connect 0.000000 0.000000 0.000000 0.000000 0.000000 0.000000 10.000000 
Rope1_Seg01 0.000000 0.000000 0.000000 0.000000 0.000000 0.000000 10.000000 
Rope1_Seg02 0.000000 0.000000 0.000000 0.000000 0.000000 0.000000 10.000000 
Rope1_Seg03 0.000000 0.000000 0.000000 0.000000 0.000000 0.000000 10.000000 
Rope1_Seg04 0.000000 0.000000 0.000000 0.000000 0.000000 0.000000 10.000000 
Rope1_Seg05 0.000000 0.000000 0.000000 0.000000 0.000000 0.000000 10.000000 
Rope1_Seg06 0.000000 0.000000 0.000000 0.000000 0.000000 0.000000 10.000000 
Rope1_Seg07 0.000000 0.000000 0.000000 0.000000 0.000000 0.000000 10.000000 
Rope1_Seg09 0.000000 0.000000 0.000000 0.000000 0.000000 0.000000 10.000000 
L_mid_hand01 0.000000 0.000000 0.000000 0.000000 0.000000 0.000000 10.000000 
L_mid_hand02 0.000000 0.000000 0.000000 0.000000 0.000000 0.000000 10.000000 
L_mid_hand03 0.000000 0.000000 0.000000 0.000000 0.000000 0.000000 10.000000 
null_rope02_connect 0.000000 0.000000 0.000000 0.000000 0.000000 0.000000 10.000000 
Rope2_Seg01 0.000000 0.000000 0.000000 0.000000 0.000000 0.000000 10.000000 
Rope2_Seg02 0.000000 0.000000 0.000000 0.000000 0.000000 0.000000 10.000000 
Rope2_Seg03 0.000000 0.000000 0.000000 0.000000 0.000000 0.000000 10.000000 
Rope2_Seg04 0.000000 0.000000 0.000000 0.000000 0.000000 0.000000 10.000000 
Rope2_Seg05 0.000000 0.000000 0.000000 0.000000 0.000000 0.000000 10.000000 
Rope2_Seg06 0.000000 0.000000 0.000000 0.000000 0.000000 0.000000 10.000000 
Rope2_Seg07 0.000000 0.000000 0.000000 0.000000 0.000000 0.000000 10.000000 
Rope2_Seg09 0.000000 0.000000 0.000000 0.000000 0.000000 0.000000 10.000000 
R_mid_hand01 0.000000 0.000000 0.000000 0.000000 0.000000 0.000000 10.000000 
R_mid_hand02 0.000000 0.000000 0.000000 0.000000 0.000000 0.000000 10.000000 
R_mid_hand03 0.000000 0.000000 0.000000 0.000000 0.000000 0.000000 10.000000 
spine02 0.000000 0.000000 0.000000 0.000000 0.000000 0.000000 10.000000 
spine03 0.000000 0.000000 0.000000 0.000000 0.000000 0.000000 10.000000 
pelvis 0.000000 0.000000 0.000000 0.000000 0.000000 0.000000 10.000000 
null_rope03_connect 0.000000 0.000000 0.000000 0.000000 0.000000 0.000000 10.000000 
null_rope04_connect 0.000000 0.000000 0.000000 0.000000 0.000000 0.000000 10.000000 
Rope3_Seg01 0.000000 0.000000 0.000000 0.000000 0.000000 0.000000 10.000000 
Rope3_Seg02 0.000000 0.000000 0.000000 0.000000 0.000000 0.000000 10.000000 
Rope3_Seg03 0.000000 0.000000 0.000000 0.000000 0.000000 0.000000 10.000000 
Rope3_Seg04 0.000000 0.000000 0.000000 0.000000 0.000000 0.000000 10.000000 
Rope3_Seg05 0.000000 0.000000 0.000000 0.000000 0.000000 0.000000 10.000000 
Rope3_Seg06 0.000000 0.000000 0.000000 0.000000 0.000000 0.000000 10.000000 
Rope3_Seg07 0.000000 0.000000 0.000000 0.000000 0.000000 0.000000 10.000000 
Rope3_Seg08 0.000000 0.000000 0.000000 0.000000 0.000000 0.000000 10.000000 
Rope3_Seg09 0.000000 0.000000 0.000000 0.000000 0.000000 0.000000 10.000000 
R_rear_hand01 0.000000 0.000000 0.000000 0.000000 0.000000 0.000000 10.000000 
R_rear_hand02 0.000000 0.000000 0.000000 0.000000 0.000000 0.000000 10.000000 
R_rear_hand03 0.000000 0.000000 0.000000 0.000000 0.000000 0.000000 10.000000 
Rope4_Seg01 0.000000 0.000000 0.000000 0.000000 0.000000 0.000000 10.000000 
Rope4_Seg02 0.000000 0.000000 0.000000 0.000000 0.000000 0.000000 10.000000 
Rope4_Seg03 0.000000 0.000000 0.000000 0.000000 0.000000 0.000000 10.000000 
Rope4_Seg04 0.000000 0.000000 0.000000 0.000000 0.000000 0.000000 10.000000 
Rope4_Seg05 0.000000 0.000000 0.000000 0.000000 0.000000 0.000000 10.000000 
Rope4_Seg06 0.000000 0.000000 0.000000 0.000000 0.000000 0.000000 10.000000 
Rope4_Seg07 0.000000 0.000000 0.000000 0.000000 0.000000 0.000000 10.000000 
Rope4_Seg08 0.000000 0.000000 0.000000 0.000000 0.000000 0.000000 10.000000 
Rope4_Seg09 0.000000 0.000000 0.000000 0.000000 0.000000 0.000000 10.000000 
L_rear_hand01 0.000000 0.000000 0.000000 0.000000 0.000000 0.000000 10.000000 
L_rear_hand02 0.000000 0.000000 0.000000 0.000000 0.000000 0.000000 10.000000 
L_rear_hand03 0.000000 0.000000 0.000000 0.000000 0.000000 0.000000 10.000000 
#Beginning of Data. Separated by tabs
#Fr	Tx	Ty	Tz	Rx	Ry	Rz	SF
[MASTER]
15 -1802.754761 0.000272 0.000000 0.002347 0.000000 89.997704 1802.754761
16 -1904.316406 0.000288 0.000000 0.002347 0.000000 89.997704 1904.316406
[root]
15 -62.822117 16.502380 1226.267090 111.816315 -27.674402 179.850845 1227.986206
16 -62.822117 16.502380 1245.011230 125.893433 -28.872890 179.420013 1246.704346
[chest]
15 -84.512650 -34.090519 0.000000 -153.186432 16.035187 -178.947739 91.129311
16 -84.512650 -34.090519 0.000000 -139.252426 15.575254 -177.159714 91.129311
[L_mid_tent01]
15 27.490736 22.067989 -251.146851 -30.286831 1.954707 17.046070 253.608917
16 27.482986 22.072447 -251.097107 -30.018908 3.110020 18.269363 253.559204
[R_mid_tent01]
15 23.228794 24.509907 226.238495 -142.311584 -24.266567 14.214133 228.744751
16 23.228794 24.509907 226.238495 -139.055954 -14.754402 10.094258 228.744751
[spine01]
15 -0.361383 -0.195265 0.000000 33.471451 1.977200 -3.355795 0.410763
16 -0.361383 -0.195265 0.000000 35.550571 1.905671 -2.810797 0.410763
[Bip01_Neck]
15 165.484543 71.581718 0.000119 175.896118 1.177290 24.871183 180.302734
16 165.484543 71.581718 0.000119 175.896118 1.177290 24.871183 180.302734
[L_humerus]
15 -13.983130 -135.272980 -120.471481 170.940796 81.564224 -99.189163 181.680161
16 -13.983130 -135.272980 -120.471481 170.940796 81.564224 -99.189163 181.680161
[R_humerus]
15 -13.983309 -135.273102 125.287651 -159.666046 -68.957870 -101.166077 184.909012
16 -13.983309 -135.273102 125.287651 -159.666046 -68.957870 -101.166077 184.909012
[weapon_bone]
15 235.964890 -300.705902 0.000000 0.000000 -89.951546 -128.212341 382.234833
16 235.964890 -300.705902 0.000000 0.000000 -89.951546 -128.212341 382.234833
[Bip01_Head]
15 261.355865 108.959435 -2.864125 2.248029 5.843377 -62.458344 283.173523
16 261.355865 108.959442 -2.864120 2.248029 5.843377 -62.458344 283.173523
[eye_left_bone]
15 -24.626970 125.451866 -64.772606 0.000000 -90.000000 -99.840431 143.318359
16 -24.626970 125.451866 -64.772606 0.000000 -90.000000 -99.840431 143.318359
[eye_right_bone]
15 -24.626970 125.451866 64.327362 0.000000 -89.960434 80.159386 143.117676
16 -24.626970 125.451866 64.327362 0.000000 -89.960434 80.159386 143.117676
[L_forearm]
15 322.776093 0.000000 -0.000119 0.000471 0.002300 -66.859398 322.776093
16 322.776093 0.000000 -0.000119 0.000471 0.002300 -66.859406 322.776093
[L_front_hand]
15 241.149185 -0.042021 -3.300071 -178.667953 -1.835447 -27.422350 241.171753
16 241.149185 -0.042021 -3.300071 -178.667953 -1.835447 -27.422350 241.171753
[L_weapon_bone]
15 156.183838 0.000000 0.000000 0.001660 0.001660 0.001660 156.183838
16 156.183838 0.000000 0.000000 0.001660 0.001660 0.001660 156.183838
[L_front_hand01_01]
15 86.095154 20.947098 -0.655860 0.276758 -0.529744 10.286519 88.609184
16 86.095154 20.947098 -0.655860 0.244884 -0.545837 13.713188 88.609184
[L_front_hand02_01]
15 86.935165 -11.437475 24.513514 117.320633 -9.651673 -5.295431 91.046425
16 86.935165 -11.437475 24.513514 117.635902 -12.690722 -6.909610 91.046425
[L_front_hand03_01]
15 86.637497 -14.123976 -20.424902 -118.656441 8.449519 -7.262133 90.126129
16 86.637497 -14.123976 -20.424902 -118.947525 11.457403 -8.938595 90.126129
[L_front_hand01_02]
15 71.020905 -0.000179 0.000030 0.001081 0.002083 -35.157215 71.020905
16 71.020905 -0.000179 0.000030 0.001003 0.002122 -39.385151 71.020905
[L_front_hand02_02]
15 71.020927 -0.000119 0.000060 0.001081 0.002083 -35.157215 71.020927
16 71.020927 -0.000119 0.000060 0.001003 0.002122 -39.385151 71.020927
[L_front_hand03_02]
15 71.020905 -0.000060 0.000060 0.001081 0.002083 -35.157215 71.020905
16 71.020905 -0.000060 0.000060 0.001003 0.002122 -39.385151 71.020905
[R_forearm]
15 322.776428 -0.000060 0.000030 0.199694 -0.075621 -69.903069 322.776428
16 322.776428 -0.000060 0.000030 0.199694 -0.075621 -69.903069 322.776428
[R_front_hand]
15 238.847015 -0.006795 2.210259 -1.531694 0.790216 -51.443054 238.857239
16 238.847015 -0.006795 2.210259 -1.531694 0.790216 -51.443054 238.857239
[R_weapon_bone]
15 155.664093 0.002503 -0.000030 0.003487 0.001180 -90.988930 155.664078
16 155.664093 0.002503 -0.000030 0.003487 0.001180 -90.988930 155.664078
[R_front_hand01_01]
15 87.624611 14.231146 22.918642 -117.333893 -9.781584 5.472091 91.683487
16 87.624611 14.231146 22.918642 -117.652397 -12.820724 7.088303 91.683487
[R_front_hand02_01]
15 89.356956 14.367283 -19.491137 118.706993 8.852694 7.725608 92.579636
16 89.356956 14.367283 -19.491137 119.012291 11.853583 9.406950 92.579636
[R_front_hand03_01]
15 87.286232 -22.307278 -0.143439 -0.315605 -0.325845 -10.670901 90.091743
16 87.286232 -22.307278 -0.143439 -0.294689 -0.343740 -14.098675 90.091743
[R_front_hand01_02]
15 71.020905 0.000060 0.000119 0.002083 0.001081 35.155499 71.020905
16 71.020905 0.000060 0.000119 0.002122 0.001003 39.388680 71.020905
[R_front_hand02_02]
15 71.020844 -0.000030 -0.000119 0.002083 0.001081 35.155499 71.020836
16 71.020844 -0.000030 -0.000119 0.002122 0.001003 39.388680 71.020836
[R_front_hand03_02]
15 71.020905 0.000000 0.000030 0.002083 0.001081 35.155499 71.020905
16 71.020905 0.000000 0.000030 0.002122 0.001003 39.388680 71.020905
[null_rope01_connect]
15 328.732483 0.000000 -0.000238 69.522728 79.466805 115.625160 328.732483
16 328.732483 0.000000 -0.000238 159.902222 80.772560 -156.060257 328.732483
[Rope1_Seg01]
15 0.000000 0.000000 0.000000 55.685276 -50.719341 52.022247 0.000000
16 0.000000 0.000000 0.000000 31.616806 -55.053497 78.030746 0.000000
[Rope1_Seg02]
15 139.999863 -0.000179 0.000000 -3.031916 13.435550 -7.733382 139.999863
16 139.999863 -0.000179 0.000000 -3.055323 15.277918 -8.966973 139.999863
[Rope1_Seg03]
15 139.999924 0.000060 -0.000060 -11.822144 22.157932 -12.129790 139.999924
16 139.999924 0.000060 -0.000060 -11.941232 23.737335 -13.465561 139.999924
[Rope1_Seg04]
15 139.999924 -0.000060 -0.000119 -41.750214 25.864670 -9.087785 139.999924
16 139.999924 -0.000060 -0.000119 -32.086639 23.305048 -8.527427 139.999924
[Rope1_Seg05]
15 139.999832 0.000119 -0.000060 -40.640858 13.147901 5.455273 139.999832
16 139.999832 0.000119 -0.000060 -35.159103 12.493631 2.724966 139.999832
[Rope1_Seg06]
15 139.999954 0.000119 -0.000060 -20.197466 4.280367 9.093827 139.999954
16 139.999954 0.000119 -0.000060 -26.628208 6.962977 8.021399 139.999954
[Rope1_Seg07]
15 139.999985 0.000060 0.000000 -11.274625 0.810902 9.439879 139.999985
16 139.999985 0.000060 0.000000 -15.167248 2.418747 9.447697 139.999985
[Rope1_Seg09]
15 121.602913 0.000119 -0.000089 -89.793175 -1.359789 0.847147 121.602913
16 121.602913 0.000119 -0.000089 -89.793175 -1.359789 0.847147 121.602913
[L_mid_hand01]
15 103.859421 1.038730 8.195221 104.445610 -6.473835 -2.195928 104.187431
16 103.859421 1.038730 8.195221 104.530579 -8.858539 -2.815847 104.187431
[L_mid_hand02]
15 105.572853 -4.139662 -10.864139 -136.174118 8.800051 -8.461067 106.211075
16 105.572853 -4.139662 -10.864139 -136.473404 10.500956 -10.268885 106.211075
[L_mid_hand03]
15 104.641464 17.579376 -3.913581 -18.668604 1.936286 9.605985 106.179977
16 104.641464 17.579376 -3.913581 -18.575745 2.721513 11.937086 106.179977
[null_rope02_connect]
15 328.732849 0.000179 -0.000119 17.125277 -24.871372 120.957626 328.732849
16 328.732849 0.000179 -0.000119 24.410561 -11.409819 108.691246 328.732849
[Rope2_Seg01]
15 0.000037 0.000098 0.000050 -34.004242 -49.113152 -158.681259 0.000116
16 0.000042 0.000099 0.000046 -34.512001 -41.906010 -158.493988 0.000117
[Rope2_Seg02]
15 139.999741 -0.000060 -0.000119 2.366903 8.278870 -27.824291 139.999756
16 139.999741 -0.000060 -0.000119 1.779486 12.136436 -21.501320 139.999756
[Rope2_Seg03]
15 140.000107 0.000030 0.000000 14.564499 7.989185 -33.234203 140.000107
16 140.000107 0.000030 0.000000 13.480279 13.213010 -28.168304 140.000107
[Rope2_Seg04]
15 139.999802 0.000000 -0.000060 15.556511 -1.639198 -18.445269 139.999802
16 139.999802 0.000000 -0.000060 21.467916 3.175356 -19.388193 139.999802
[Rope2_Seg05]
15 139.999985 -0.000060 0.000119 14.275754 -7.581349 -14.170366 139.999985
16 139.999985 -0.000060 0.000119 23.924339 -3.827436 -16.421721 139.999985
[Rope2_Seg06]
15 139.999893 -0.000030 -0.000119 9.458826 -8.506617 -9.709609 139.999893
16 139.999893 -0.000030 -0.000119 17.175800 -8.299275 -11.270714 139.999893
[Rope2_Seg07]
15 139.999893 0.000060 -0.000060 4.604775 -5.931218 -5.194871 139.999893
16 139.999893 0.000060 -0.000060 7.701637 -6.676961 -5.072176 139.999893
[Rope2_Seg09]
15 121.338966 0.000089 -0.000060 33.793236 -1.359788 -0.847141 121.338966
16 121.338966 0.000089 -0.000060 33.793236 -1.359788 -0.847141 121.338966
[R_mid_hand01]
15 104.680779 11.144459 -10.335981 -46.801640 8.973886 11.064841 105.778534
16 104.680779 11.144459 -10.335981 -46.526108 10.640026 12.655807 105.778534
[R_mid_hand02]
15 104.070427 2.443552 8.231699 75.403473 -10.192782 3.176561 104.424065
16 104.070427 2.443552 8.231699 75.284584 -12.403854 3.766673 104.424065
[R_mid_hand03]
15 106.028137 -11.221827 -5.996406 -164.874466 4.674486 -14.062467 106.788818
16 106.028137 -11.221827 -5.996406 -165.067444 5.264448 -16.276682 106.788818
[spine02]
15 129.756927 0.001550 0.000119 -0.245322 -4.052060 -4.355547 129.756927
16 129.756927 0.001550 0.000119 -0.245322 -4.052060 -4.355547 129.756927
[spine03]
15 78.613823 0.087128 -4.898733 0.369659 4.260734 -4.885720 78.766357
16 78.613831 0.087128 -4.898728 0.369659 4.260734 -4.885720 78.766357
[pelvis]
15 169.435242 0.051022 0.000000 -0.010047 -0.193695 -1.851898 169.435257
16 169.435242 0.051022 0.000000 -0.010040 -0.193315 -1.859507 169.435257
[null_rope03_connect]
15 -1.257226 -2.466202 137.391083 -152.777008 34.288635 -75.376213 137.418976
16 -1.257226 -2.466202 137.391083 -151.482086 18.342413 -76.089630 137.418976
[null_rope04_connect]
15 -1.259640 -2.480268 -137.844437 -152.777008 34.288635 -75.376213 137.872513
16 -1.259640 -2.480268 -137.844437 -151.482086 18.342413 -76.089630 137.872513
[Rope3_Seg01]
15 0.000000 0.000000 0.000000 24.259356 37.474678 -70.689621 0.000000
16 0.000000 0.000000 0.000000 28.997149 29.505882 -55.698090 0.000000
[Rope3_Seg02]
15 139.999924 -0.000119 0.000060 2.416721 9.021103 -8.922802 139.999924
16 139.999924 -0.000119 0.000060 5.667784 10.401887 -7.259448 139.999924
[Rope3_Seg03]
15 139.999924 -0.000119 0.000119 0.755784 17.980803 -20.744106 139.999924
16 139.999924 -0.000119 0.000119 7.957181 20.196098 -18.615459 139.999924
[Rope3_Seg04]
15 139.999924 0.000119 0.000000 -5.228244 19.792953 -27.249586 139.999924
16 139.999924 0.000119 0.000000 2.284903 19.456949 -27.644463 139.999924
[Rope3_Seg05]
15 139.999924 -0.000238 0.000060 -7.996109 17.258652 -22.291862 139.999924
16 139.999924 -0.000238 0.000060 -2.878921 14.092378 -24.143044 139.999924
[Rope3_Seg06]
15 139.999893 -0.000119 -0.000060 -6.434238 13.415757 -14.112739 139.999893
16 139.999893 -0.000119 -0.000060 -4.093243 10.097409 -16.374660 139.999893
[Rope3_Seg07]
15 139.999771 0.000060 -0.000119 -2.371920 6.313757 -5.536283 139.999771
16 139.999771 0.000060 -0.000119 -1.865139 4.722054 -6.901135 139.999771
[Rope3_Seg08]
15 139.999985 -0.000060 0.000000 -0.848057 3.198416 -2.604959 139.999985
16 139.999985 -0.000060 0.000000 -0.732019 2.419811 -3.338580 139.999985
[Rope3_Seg09]
15 90.185997 -0.000179 -0.000060 89.793228 -1.359877 -0.847183 90.185997
16 90.185997 -0.000179 -0.000060 89.793228 -1.359877 -0.847183 90.185997
[R_rear_hand01]
15 103.366196 -6.073594 -10.757982 -156.260391 6.888772 -4.662050 104.101845
16 103.366196 -6.073594 -10.757982 -156.519684 7.778793 -6.714527 104.101845
[R_rear_hand02]
15 100.509819 12.039542 -7.992327 -38.633274 3.224904 7.045907 101.543350
16 100.509819 12.039542 -7.992327 -38.515537 4.609975 8.784945 101.543350
[R_rear_hand03]
15 101.539970 5.215704 5.435467 84.294777 -4.384002 4.300453 101.819031
16 101.539970 5.215704 5.435467 84.275841 -6.590108 4.520812 101.819031
[Rope4_Seg01]
15 -0.000033 0.000000 -0.000085 -119.812294 -21.572020 -48.401909 0.000092
16 -0.000032 0.000000 -0.000092 -139.218765 -33.196178 -44.904995 0.000097
[Rope4_Seg02]
15 139.999985 0.000060 0.000119 57.580448 -30.520618 5.929515 139.999985
16 139.999985 0.000060 0.000119 40.967327 -27.587530 -10.294423 139.999985
[Rope4_Seg03]
15 139.999924 0.000000 -0.000238 54.032318 -21.183598 54.347935 139.999924
16 139.999924 0.000000 -0.000238 120.782692 -53.926094 22.144947 139.999924
[Rope4_Seg04]
15 139.999985 0.000000 0.000119 4.090807 15.424546 14.875865 139.999985
16 139.999985 0.000000 0.000119 1.877588 20.056095 10.579329 139.999985
[Rope4_Seg05]
15 139.999802 -0.000060 -0.000119 -0.090648 13.187743 1.096460 139.999802
16 139.999802 -0.000060 -0.000119 -1.462508 12.385470 -2.167099 139.999802
[Rope4_Seg06]
15 139.999924 0.000000 0.000060 0.690746 10.042947 0.270884 139.999924
16 139.999924 0.000000 0.000060 -0.205150 9.401859 -2.273252 139.999924
[Rope4_Seg07]
15 139.999802 0.000000 0.000000 0.591191 5.458678 1.044890 139.999802
16 139.999802 0.000000 0.000000 0.352284 5.400143 -0.229296 139.999802
[Rope4_Seg08]
15 139.999924 0.000000 0.000119 -1.109476 3.277145 0.593368 139.999924
16 139.999924 0.000000 0.000119 -1.210021 3.244993 -0.156317 139.999924
[Rope4_Seg09]
15 90.185791 0.000060 0.000060 -135.617828 2.228885 0.850567 90.185791
16 90.185791 0.000060 0.000060 -135.617828 2.228885 0.850567 90.185791
[L_rear_hand01]
15 101.696655 -8.392275 -7.654577 -38.734707 -1.082930 175.627808 102.329041
16 101.696655 -8.392275 -7.654577 -38.676117 -2.543634 173.809082 102.329041
[L_rear_hand02]
15 102.726799 -1.568258 5.773216 84.315697 0.973563 176.040817 102.900848
16 102.726799 -1.568258 5.773216 84.302147 3.292158 175.808121 102.900848
[L_rear_hand03]
15 104.552910 9.721220 -10.420293 -155.919388 -5.502444 -178.482697 105.519653
16 104.552910 9.721220 -10.420293 -156.143280 -6.452847 -176.342621 105.519653
